# xmcd
#
# Track frame offsets:
# 150
# 16462
# 35488
# 53848
# 67127
# 82130
# 97253
# 110881
# 127581
# 143899
# 160150
# 175858
# 189867
# 211344
# 229807
# 244480
# 259113
# 273480
# 289377
# 305403
#
# Disc length: 4259 seconds
#
#
# Revision: 0
# Processed by: cddbd v1.5.2PL0 Copyright (c) Steve Scherf et al.
# Submitted via: FreeRIP 2.945 
#
DISCID=3010a114
DTITLE=forrozão chacal - a fera do forro
DYEAR=2006
DGENRE=forró
TTITLE0=rei do cabaré
TTITLE1=americana quer beber
TTITLE2=tremendo vacilão
TTITLE3=eu não quero me amarrar
TTITLE4=querem nos separar
TTITLE5=nega boa do carai
TTITLE6=raparigueiro fino
TTITLE7=bebendo no cabaré
TTITLE8=não devo nada a ninguem
TTITLE9=pode chorar
TTITLE10=piri piri
TTITLE11=cano de ferro
TTITLE12=quero ficar
TTITLE13=malandrinha
TTITLE14=balança mas não cai
TTITLE15=quem você pensa que é
TTITLE16=volte amor
TTITLE17=nossa história
TTITLE18=depois da meia noite
TTITLE19=apaixonados anônimos
EXTD=
EXTT0=
EXTT1=
EXTT2=
EXTT3=
EXTT4=
EXTT5=
EXTT6=
EXTT7=
EXTT8=
EXTT9=
EXTT10=
EXTT11=
EXTT12=
EXTT13=
EXTT14=
EXTT15=
EXTT16=
EXTT17=
EXTT18=
EXTT19=
PLAYORDER=
